<?xml version="1.0" standalone="no"?>
<!DOCTYPE svg PUBLIC "-//W3C//DTD SVG 20010904//EN"
 "http://www.w3.org/TR/2001/REC-SVG-20010904/DTD/svg10.dtd">
<svg version="1.0" xmlns="http://www.w3.org/2000/svg"
 width="512.000000pt" height="512.000000pt" viewBox="0 0 512.000000 512.000000"
 preserveAspectRatio="xMidYMid meet">

<g transform="translate(0.000000,512.000000) scale(0.100000,-0.100000)"
fill="#000" stroke="none">
<path fill="#000" d="M1430 4469 c-245 -24 -397 -95 -552 -257 -127 -133 -190 -262 -220
-452 -19 -124 -19 -2276 0 -2400 32 -200 95 -325 236 -466 103 -103 198 -164
308 -199 156 -50 167 -50 1358 -50 1194 0 1201 0 1360 51 220 70 434 284 504
504 51 159 51 166 51 1360 0 1194 0 1201 -51 1360 -68 214 -280 430 -492 501
-160 53 -133 52 -1317 55 -605 1 -1138 -2 -1185 -7z m2265 -429 c187 -27 318
-159 345 -345 13 -95 13 -2176 0 -2270 -27 -187 -159 -318 -345 -345 -94 -13
-2176 -13 -2270 0 -186 27 -318 158 -345 345 -13 95 -13 2175 0 2270 6 38 21
93 35 122 52 114 173 204 300 222 87 12 2193 13 2280 1z"/>
<path fill="#000" d="M1609 3812 c-39 -20 -62 -41 -84 -77 l-30 -48 -3 -666 c-2 -483 0
-681 8 -720 16 -74 84 -143 156 -160 98 -24 193 20 238 110 l26 53 0 674 c0
505 -3 685 -12 716 -16 53 -81 118 -134 134 -64 19 -107 15 -165 -16z"/>
<path fill="#000" d="M2480 3824 c-45 -20 -87 -59 -111 -106 -18 -35 -19 -63 -19 -408 0
-312 2 -377 15 -408 64 -152 273 -172 370 -34 l30 44 3 384 c3 363 2 385 -17
421 -53 103 -172 150 -271 107z"/>
<path fill="#000" d="M3342 3829 c-46 -14 -118 -88 -131 -135 -17 -59 -15 -2213 1 -2268
17 -57 82 -119 141 -135 95 -27 195 13 244 97 l28 47 0 1125 0 1125 -28 47
c-49 84 -160 126 -255 97z"/>
</g>
</svg>
